<svg width="172" height="73" viewBox="0 0 172 73" fill="none" xmlns="http://www.w3.org/2000/svg">
<path fill-rule="evenodd" clip-rule="evenodd" d="M20.0198 2.84518L20.017 2.84968C20.0188 2.84657 20.0198 2.84513 20.0198 2.84518ZM18.3189 5.64343C18.5335 5.34097 18.7647 5.01531 18.9909 4.67656C19.0233 4.77927 19.0581 4.8863 19.0901 4.97287C19.377 5.74756 19.8311 6.42455 20.5065 6.86196C21.1994 7.31072 21.9652 7.40333 22.6589 7.28716C23.5005 7.14621 24.2688 6.70172 24.9044 6.14609C24.8291 6.51451 24.7554 6.84953 24.6946 7.11587C23.4977 12.3575 21.1633 17.2442 18.7728 22.2483C17.8957 24.0843 17.0112 25.936 16.1724 27.8269C15.0655 30.3223 13.9427 32.8196 12.8178 35.3215C9.73367 42.1812 6.63402 49.0753 3.80381 56.061C2.03593 60.4246 1.41925 63.7546 0.779231 68.1067C0.765115 68.2027 0.751962 68.3066 0.739632 68.4148C0.335649 68.7289 0.102728 69.2417 0.170799 69.7863C0.220926 70.1873 0.268117 70.5108 0.314132 70.7612C0.348051 70.9457 0.410493 71.2749 0.546355 71.5509C0.585747 71.631 0.674093 71.7975 0.834769 71.9641C0.99183 72.1268 1.37054 72.4407 1.95425 72.4333C2.54198 72.4257 2.91456 72.0983 3.06969 71.9259C3.22643 71.7517 3.30864 71.5802 3.34412 71.5004C3.4625 71.2339 3.50557 70.9335 3.52224 70.8172L3.52353 70.8083C3.56848 70.4959 3.60412 70.0635 3.63545 69.6833L3.64163 69.6083C3.67769 69.1719 3.71018 68.7957 3.74731 68.5432C4.3745 64.2783 4.94924 61.2232 6.58428 57.1875C9.3916 50.2583 12.4567 43.4409 15.5334 36.5979L15.5336 36.5975C16.6631 34.0852 17.7943 31.5693 18.9148 29.0433C19.6762 27.3267 20.51 25.5819 21.3576 23.8081C23.7926 18.7127 26.3419 13.3779 27.6193 7.78371C27.8073 6.96057 28.1504 5.34987 28.2786 4.05811C28.3112 3.72997 28.3326 3.39719 28.3306 3.08766C28.3287 2.80085 28.3073 2.43407 28.204 2.08564C28.125 1.8189 27.8247 0.997576 26.8868 0.787845C26.0435 0.599251 25.4168 1.094 25.2031 1.27712C24.5592 1.82904 24.059 2.50489 23.6736 3.02548L23.6736 3.02551C23.5845 3.14591 23.5015 3.25801 23.4243 3.35835C23.1993 3.65093 22.9468 3.89427 22.7037 4.06692C22.4539 4.24437 22.2654 4.31128 22.1634 4.32837C22.1462 4.33124 22.1338 4.33255 22.1251 4.33308C22.0917 4.30102 22.0017 4.19645 21.9034 3.93092C21.8803 3.86873 21.8561 3.78964 21.8196 3.67072C21.7803 3.54276 21.7269 3.36868 21.6456 3.11993C21.5175 2.72774 21.3385 2.21662 21.1176 1.76981C21.0081 1.54818 20.8622 1.28822 20.6727 1.05248C20.5063 0.845401 20.1667 0.478773 19.6244 0.323964C18.9447 0.12993 18.3256 0.363909 17.9114 0.731761C17.5655 1.03895 17.3548 1.43502 17.2164 1.75801C16.951 2.37725 16.4873 3.03427 15.9058 3.85805L15.9058 3.85807L15.9056 3.85832C15.803 4.00376 15.6967 4.1544 15.5871 4.31095C14.9459 5.22721 14.133 6.42854 13.8802 7.69255C13.7178 8.50489 14.2446 9.29513 15.0569 9.4576C15.8693 9.62007 16.6595 9.09324 16.822 8.2809C16.9324 7.72885 17.3505 7.02349 18.0451 6.03096C18.1319 5.90692 18.2238 5.77745 18.3189 5.64343ZM27.1555 3.55489C27.1825 3.53176 27.1776 3.54084 27.1442 3.56459L27.1555 3.55489ZM0.539502 70.4669C0.539457 70.4667 0.540228 70.4627 0.541953 70.4556C0.54041 70.4635 0.539546 70.4671 0.539502 70.4669ZM22.1097 4.33287C22.109 4.33281 22.1087 4.33282 22.1086 4.33287C22.1085 4.33297 22.1098 4.33323 22.1128 4.33334C22.1114 4.33307 22.1104 4.33293 22.1097 4.33287ZM36.9847 4.83028C37.0207 4.00263 36.379 3.30252 35.5513 3.26654C34.7237 3.23055 34.0236 3.87232 33.9876 4.69997C33.75 10.1649 32.7367 15.615 31.5797 21.1378C31.3641 22.1668 31.1432 23.1997 30.9217 24.2357L30.9215 24.2365L30.9215 24.2365C29.9617 28.7244 28.9895 33.2702 28.3839 37.8122C28.3601 37.9903 28.3405 38.1355 28.3246 38.2518C28.3103 38.3441 28.2984 38.4247 28.2892 38.4883C28.2775 38.5692 28.2678 38.6394 28.2626 38.6819L28.2625 38.6828C28.2616 38.6897 28.2582 38.7174 28.2555 38.7481C28.2548 38.7565 28.2527 38.7802 28.2513 38.8103C28.2507 38.8243 28.2493 38.8558 28.2497 38.8957C28.2501 38.9157 28.252 38.9639 28.2538 38.9922C28.2576 39.0353 28.2742 39.1511 28.2892 39.2233C28.3301 39.3655 28.5778 39.8174 28.8419 40.0752C29.4746 40.3557 30.5406 40.1557 30.8561 39.894C30.9589 39.7688 31.0853 39.564 31.1193 39.4928C31.1373 39.4509 31.1641 39.3807 31.1737 39.3527C31.2017 39.2682 31.2161 39.1972 31.2161 39.1972C31.2229 39.1657 31.2275 39.1396 31.2285 39.1336L31.2286 39.133L31.233 39.1066L31.2395 39.0649C31.2491 39.0016 31.2664 38.8802 31.293 38.6864C31.3438 38.3592 31.4176 37.9248 31.4847 37.6495C32.0848 35.1857 33.7526 33.0973 35.5771 30.8125L35.7638 30.5787C36.0294 30.2458 36.2783 29.8296 36.4867 29.471C36.5564 29.3509 36.6234 29.2341 36.6892 29.1194L36.69 29.1181C36.841 28.8549 36.9857 28.6026 37.1435 28.3459C37.3476 28.014 37.5361 27.7382 37.7136 27.5254C37.7462 27.5967 37.7806 27.6777 37.8162 27.7693C38.1293 28.5766 38.3006 29.5871 38.3358 29.9002C38.5128 31.4759 38.4801 33.0482 38.4453 34.7164V34.7165C38.4308 35.4149 38.4159 36.1302 38.4159 36.8695C38.4159 37.1997 38.4217 37.5806 38.4662 37.9256C38.5006 38.1923 38.5925 38.7999 39.0294 39.2778C39.2949 39.5682 39.6655 39.7863 40.1118 39.8471C40.5225 39.903 40.8773 39.8097 41.1277 39.7087C41.596 39.5199 42.0188 39.1725 42.3793 38.8309C42.9602 38.2806 43.4925 37.5841 43.9544 36.9709L44.0986 36.7792C44.5314 36.2035 44.9231 35.6824 45.3369 35.228C46.2516 34.2234 46.8421 34.0087 47.4713 34.1914C47.4139 34.5179 47.3622 34.8445 47.3172 35.1697C47.0308 37.2361 46.9854 39.4187 47.5554 41.2418C48.1547 43.1586 49.475 44.7452 51.7923 45.2086C54.2478 45.6997 56.5713 45.6934 58.5287 44.7146C60.54 43.7089 61.8714 41.8279 62.6323 39.2125C63.1666 37.3757 63.212 35.4221 63.1914 33.6481C63.9652 33.6427 64.7282 33.606 65.4345 33.3698C65.5484 33.3317 65.6587 33.2894 65.766 33.2429C65.8137 34.2855 65.8078 35.3243 65.8016 36.4053V36.4061C65.7982 36.9898 65.7948 37.5859 65.7997 38.2014C65.8093 39.4002 65.9081 41.6597 66.5521 43.3391C66.8643 44.1533 67.4411 45.1972 68.5551 45.6536C69.7737 46.1529 71.0121 45.7192 72.0714 44.9533C73.9346 43.606 75.8398 42.1153 77.3069 40.2013C77.5897 40.2155 77.8752 40.1847 78.1561 40.1145C79.5372 39.7692 80.5346 38.6691 81.1906 37.7288C81.3177 38.9115 81.5553 39.9613 81.9355 40.8297C82.3587 41.7964 83.013 42.6534 83.997 43.1086C84.9986 43.572 86.0725 43.4953 87.0686 43.1313C88.0462 42.774 89.0385 42.1128 90.0333 41.2423C90.2479 41.0546 90.4904 40.8483 90.7509 40.6268C91.569 39.931 92.5647 39.0841 93.4314 38.1842C93.9188 37.6782 94.4111 37.1116 94.841 36.4899C95.075 37.694 95.4416 38.8957 95.9354 40.1006C95.9742 40.1953 96.0245 40.3267 96.0853 40.4855C96.3449 41.1637 96.7958 42.3418 97.3609 43.2962C97.7113 43.8878 98.2008 44.5691 98.8659 45.0273C99.6126 45.5416 100.606 45.7762 101.651 45.3079C105.829 43.435 108.689 40.615 110.523 37.1325C110.93 37.317 111.367 37.4608 111.834 37.5561C112.959 37.7858 113.837 37.2726 114.401 36.7133C114.524 36.5906 114.641 36.459 114.75 36.3221C114.91 37.8059 115.168 39.2857 115.561 40.767C115.715 41.3453 115.864 41.881 116.046 42.3128C116.235 42.7622 116.527 43.2716 117.068 43.6348C117.591 43.9856 118.155 44.0683 118.58 44.099C118.911 44.1229 119.315 44.1214 119.728 44.1199L119.729 44.1199C119.83 44.1195 119.931 44.1192 120.031 44.1192C120.21 44.1192 120.404 44.1231 120.609 44.1273L120.609 44.1273C121.331 44.1421 122.183 44.1596 122.928 44.0158C123.756 43.8562 124.515 43.5095 125.208 42.8856C126.194 43.3553 127.311 43.6375 128.422 43.6642C129.953 43.7009 131.613 43.2467 132.829 41.9417C133.934 40.7563 134.71 39.1726 135.151 37.5734C135.592 35.9722 135.731 34.2313 135.444 32.6812C135.03 30.4418 133.587 28.891 132.313 27.69C132.664 27.7649 133.012 27.8439 133.351 27.9211L133.353 27.9214C133.462 27.9462 133.57 27.9708 133.677 27.995C134.272 28.1294 134.908 28.2694 135.387 28.3169C140.911 28.8647 146.437 28.6548 151.908 27.6743C155.083 27.1053 158.135 26.1986 161.099 25.2794C161.475 25.1627 161.849 25.046 162.222 24.9296L162.229 24.9275L162.229 24.9274C164.818 24.1202 167.343 23.3331 169.923 22.7375C170.731 22.5512 171.234 21.7458 171.048 20.9386C170.861 20.1314 170.056 19.6281 169.249 19.8143C166.549 20.4373 163.908 21.2612 161.328 22.0658C160.954 22.1825 160.581 22.2988 160.21 22.414C157.252 23.3314 154.355 24.188 151.379 24.7214C146.182 25.6526 140.934 25.8523 135.683 25.3316C135.426 25.306 134.986 25.2149 134.338 25.0687C134.284 25.0565 134.229 25.0441 134.173 25.0314L134.031 24.9991L134.031 24.999C133.491 24.8764 132.875 24.7362 132.262 24.6179C131.532 24.4771 130.743 24.3541 130.015 24.3273C129.679 24.3149 129.291 24.3192 128.895 24.3782C128.18 23.966 127.383 23.8361 126.566 24.0631C125.608 24.3295 124.887 25.0228 124.389 25.6289C123.482 26.7331 122.778 28.2436 122.393 29.0688L122.393 29.0689C122.35 29.1594 122.312 29.2417 122.278 29.3143C121.353 31.2657 120.703 33.6592 120.821 35.9809C120.911 37.7541 121.457 39.5295 122.699 40.9745C122.587 41.0189 122.475 41.048 122.36 41.0701C121.952 41.1489 121.55 41.1413 120.94 41.1297C120.681 41.1248 120.383 41.1192 120.031 41.1192C119.889 41.1192 119.76 41.1195 119.645 41.1199L119.643 41.1199C119.254 41.121 119.003 41.1217 118.796 41.1068L118.794 41.1066C118.709 40.8944 118.611 40.5635 118.461 39.9968C117.886 37.8313 117.626 35.6301 117.548 33.333C117.548 33.333 117.548 33.3324 117.548 33.3311C117.549 33.3246 117.549 33.3007 117.554 33.2542C117.559 33.1896 117.569 33.1093 117.582 33.0076C117.587 32.9665 117.594 32.9193 117.601 32.868C117.624 32.6995 117.653 32.4869 117.67 32.3039C117.682 32.1777 117.693 32.0263 117.691 31.8711C117.69 31.7362 117.68 31.4948 117.599 31.2346C117.526 30.999 117.282 30.4055 116.58 30.1616C115.918 29.9313 115.375 30.2032 115.181 30.3163C114.48 30.7254 114.037 31.4716 113.778 31.9377C113.619 32.2243 113.422 32.6201 113.245 32.9759L113.245 32.9765C113.134 33.2006 113.03 33.4087 112.949 33.5635C112.674 34.0882 112.46 34.4122 112.288 34.5831C112.092 34.5323 111.902 34.4612 111.721 34.3722C112.252 32.8593 112.632 31.2528 112.88 29.5706C113.09 28.1422 113.034 26.8604 112.523 25.9198C112.248 25.4134 111.814 24.9664 111.207 24.7406C110.605 24.5169 110.006 24.5743 109.511 24.7518C108.572 25.0885 107.835 25.8984 107.349 26.7786C106.84 27.701 106.506 28.8699 106.473 30.1878C106.432 31.8647 106.989 33.7556 108.13 35.2196C106.597 38.3948 104.149 40.8745 100.525 42.5245C100.391 42.4157 100.187 42.1813 99.9423 41.7676C99.5243 41.0617 99.2098 40.2454 98.9458 39.5601L98.9457 39.5599C98.8632 39.3456 98.7856 39.1442 98.7113 38.9629C97.9933 37.2109 97.5985 35.4993 97.5421 33.7811C97.7697 33.8577 97.9998 33.9235 98.23 33.9745C98.9689 34.138 99.8374 34.1824 100.701 33.8583C101.594 33.5236 102.305 32.8623 102.818 31.9377C103.348 30.9841 104.01 29.0838 104.228 27.2819C104.337 26.3793 104.353 25.3637 104.095 24.4504C103.827 23.4975 103.207 22.5191 102.003 22.0974C100.961 21.7328 99.9689 21.856 99.1231 22.2992C98.3322 22.7136 97.7322 23.3713 97.2861 24.0015C96.3989 25.255 95.8283 26.8296 95.5266 27.6954C95.3282 28.2647 95.1601 28.8307 95.0219 29.394C94.5155 29.3749 94.0112 29.5596 93.6386 29.9565C93.3194 30.2966 93.199 30.685 93.1462 30.9178C93.0893 31.1689 93.0733 31.4143 93.0689 31.6076C93.0621 31.9117 93.084 32.262 93.1005 32.5252C93.1041 32.5825 93.1074 32.6357 93.1101 32.6833C93.119 32.838 93.1238 32.9584 93.1234 33.0558C93.1231 33.1361 93.1191 33.1704 93.1191 33.1725C92.9488 34.0543 92.2992 35.0353 91.2708 36.103C90.5175 36.8851 89.6939 37.5859 88.8998 38.2615L88.8995 38.2618C88.6135 38.5051 88.3314 38.7452 88.0578 38.9846C87.2132 39.7237 86.5392 40.1307 86.0388 40.3136C85.557 40.4896 85.3413 40.4251 85.2565 40.3859C85.1541 40.3385 84.9252 40.1783 84.6836 39.6265C84.441 39.0722 84.2406 38.2404 84.1417 37.0778C84.1228 36.856 84.1179 36.4885 84.1113 35.998C84.1097 35.8815 84.1081 35.758 84.1061 35.6278C84.0968 35.0087 84.08 34.2672 84.012 33.666C83.9795 33.3777 83.9255 33.025 83.8161 32.7079C83.7627 32.5534 83.6647 32.3119 83.4806 32.0795C83.2878 31.8362 82.9047 31.492 82.3105 31.4427C81.7406 31.3953 81.3206 31.6499 81.1045 31.822C80.8845 31.9973 80.7266 32.202 80.6196 32.3597C80.4219 32.6506 80.2387 33.0208 80.0617 33.4386C80.2023 32.8388 80.3448 32.1782 80.439 31.5692C80.5522 30.8377 80.6257 30.0371 80.5675 29.2773C80.5108 28.5365 80.3167 27.6652 79.7412 26.9543C79.4402 26.5825 78.9632 26.2299 78.3151 26.1879C77.7149 26.149 77.2458 26.3972 76.964 26.5989C76.433 26.9791 76.0414 27.5719 75.7937 27.9926C75.2581 28.9019 74.8471 29.9833 74.7713 30.2277C74.6438 30.6383 74.5168 31.4407 74.4301 32.2967C74.339 33.196 74.2776 34.304 74.3235 35.3753C74.3659 36.3626 74.5042 37.4925 74.9099 38.3979C73.7484 39.9045 72.1539 41.1915 70.3135 42.5222C69.9671 42.7728 69.7687 42.8417 69.6803 42.8587C69.6287 42.806 69.5016 42.652 69.3532 42.265C68.9226 41.1419 68.8092 39.3734 68.7996 38.1774C68.7954 37.6522 68.7985 37.1083 68.8016 36.5528C68.8097 35.1293 68.8181 33.6291 68.7057 32.1681C68.7029 32.1305 68.6995 32.0805 68.6955 32.0208L68.6955 32.0206C68.6758 31.7285 68.6406 31.2064 68.5705 30.7937C68.5477 30.6594 68.5165 30.5049 68.4716 30.3507C68.4325 30.2163 68.3562 29.9845 68.2054 29.7546C68.0745 29.555 67.661 29.0247 66.8879 29.0041C66.1618 28.9848 65.7227 29.4403 65.5827 29.6024C64.982 30.298 64.6978 30.4528 64.4827 30.5247C64.2259 30.6106 63.9019 30.6394 63.1637 30.6468L63.1637 30.6338C63.1675 29.3936 63.1729 27.6367 63.1385 26.2454C63.1175 25.4015 63.0804 24.5608 62.9943 24.0659C62.9751 23.9551 62.933 23.7297 62.8324 23.5055C62.7919 23.4152 62.6584 23.1263 62.3528 22.8893C62.1776 22.7534 61.9179 22.6137 61.5825 22.5765C61.2403 22.5386 60.9393 22.6206 60.7114 22.7384C60.3207 22.9403 60.1308 23.2508 60.0766 23.3414C59.9977 23.4734 59.9475 23.5974 59.9175 23.6786C59.8559 23.8456 59.8095 24.0278 59.7725 24.1945C59.7381 24.3493 59.6942 24.5339 59.6447 24.7424C59.3848 25.8368 58.9686 27.5891 58.9447 29.1298C58.9305 30.0454 59.0422 31.1402 59.6001 32.0487C59.7635 32.3149 59.9555 32.5498 60.1732 32.7521L60.1775 33.0288C60.2081 34.9841 60.2352 36.7127 59.7517 38.3745C59.1463 40.4556 58.2329 41.5084 57.1869 42.0314C56.087 42.5814 54.5409 42.699 52.3806 42.2669C51.3608 42.0629 50.7644 41.4522 50.4187 40.3466C50.0438 39.1474 50.0253 37.4826 50.2888 35.5815C50.3091 35.4347 50.331 35.2875 50.3543 35.14C50.4565 35.1379 50.5613 35.1301 50.668 35.1156C51.3116 35.0282 51.882 34.7158 52.342 34.214C54.8428 31.4859 56.1223 27.5732 56.2917 24.1008C56.2886 24.1658 56.3506 23.4316 56.3496 22.8153C56.349 22.5105 56.3358 22.1031 56.2611 21.7437C56.2284 21.5861 56.1523 21.2685 55.9455 20.9659C55.833 20.8012 55.6354 20.5725 55.3174 20.4131C54.9712 20.2397 54.5921 20.2042 54.2444 20.2815C53.51 20.4447 52.9736 20.9799 52.6792 21.3077C52.3282 21.6986 52.0024 22.1683 51.7244 22.6097C51.2326 23.3907 50.7956 24.2382 50.5518 24.7111L50.5518 24.7111C50.5192 24.7742 50.4901 24.8307 50.4648 24.8794C49.8362 26.0882 48.8632 28.5172 48.1272 31.2612C45.8718 30.6948 44.2074 32.0126 43.1187 33.2081C42.6032 33.7743 42.1233 34.4134 41.7045 34.9712L41.7044 34.9713L41.5581 35.166C41.5165 35.2212 41.4757 35.2753 41.4354 35.3283L41.4425 34.982V34.982C41.4787 33.237 41.5178 31.3519 41.317 29.5652C41.265 29.1022 41.052 27.8159 40.6131 26.6844C40.4015 26.1389 40.0735 25.4565 39.5564 24.9514C39.2833 24.6847 38.9062 24.417 38.4165 24.2913C37.9045 24.1598 37.3882 24.2145 36.9176 24.4127C36.3103 24.6684 35.8431 25.1046 35.5012 25.4966C35.1495 25.8999 34.8445 26.3574 34.588 26.7745C34.4049 27.0723 34.2234 27.3887 34.0636 27.6671L34.0636 27.6672L34.0635 27.6674C34.0031 27.7727 33.9458 27.8725 33.8927 27.9638C33.6777 28.334 33.5289 28.5696 33.4187 28.7077C33.3163 28.836 33.2122 28.966 33.1068 29.0975L33.1061 29.0984L32.9109 29.3423C33.2124 27.8714 33.528 26.3952 33.8454 24.9107C34.0695 23.8626 34.2944 22.8104 34.516 21.7529C35.6772 16.2101 36.7358 10.5565 36.9847 4.83028ZM93.1191 33.1725C93.1196 33.1702 93.12 33.1681 93.1204 33.1658C93.1198 33.169 93.1195 33.1711 93.1193 33.172C93.1192 33.1725 93.1191 33.1727 93.1191 33.1725ZM83.1077 34.0363C83.1077 34.0364 83.1061 34.0387 83.103 34.0427C83.1061 34.0383 83.1076 34.0362 83.1077 34.0363ZM114.691 31.9028L114.691 31.8987C114.691 31.8942 114.691 31.8927 114.691 31.8939C114.691 31.895 114.691 31.898 114.691 31.9028ZM128.494 40.665C128.048 40.6543 127.593 40.5734 127.16 40.4371C129.045 37.7935 131.034 34.4635 131.409 31.0792C131.972 31.7614 132.349 32.4408 132.494 33.2274C132.683 34.2459 132.605 35.5208 132.259 36.7766C131.912 38.0342 131.332 39.1486 130.635 39.896C130.152 40.4144 129.414 40.6871 128.494 40.665ZM127.294 27.0796C127.283 27.0641 127.267 27.0421 127.249 27.0142C127.133 27.0879 126.949 27.239 126.708 27.5327C126.06 28.3221 125.519 29.4723 125.109 30.3437L125.106 30.3494C125.066 30.4354 125.027 30.5186 124.989 30.5985C124.215 32.2315 123.731 34.1278 123.817 35.8291C123.872 36.9156 124.153 37.8865 124.719 38.6894C126.518 36.1613 128.143 33.3659 128.429 30.7339C128.539 29.7186 128.562 29.0689 128.45 28.539C128.424 28.4152 128.389 28.2925 128.341 28.1691C128.103 27.9487 127.873 27.7286 127.688 27.537C127.565 27.4101 127.414 27.246 127.294 27.0796ZM109.912 29.1341C109.81 29.8267 109.684 30.4999 109.533 31.1532C109.486 30.8607 109.465 30.5619 109.472 30.2619C109.493 29.401 109.711 28.7078 109.976 28.2286L109.994 28.1962C109.99 28.4523 109.966 28.763 109.912 29.1341ZM98.8781 31.0453C98.5357 30.9696 98.1798 30.8334 97.8114 30.6604C97.945 30.0069 98.1274 29.3484 98.3595 28.6826C98.6648 27.8065 99.1198 26.6036 99.7348 25.7347C100.04 25.3038 100.31 25.0642 100.515 24.9565C100.666 24.8775 100.797 24.8538 101.011 24.9289L101.014 24.9295C101.031 24.9334 101.12 24.9538 101.208 25.2644C101.312 25.6329 101.337 26.1993 101.249 26.9219C101.074 28.3703 100.522 29.8932 100.196 30.4808C99.9674 30.8919 99.7649 31.0055 99.6476 31.0495C99.5022 31.104 99.2652 31.131 98.8781 31.0453ZM69.6241 42.8621C69.6244 42.861 69.6324 42.8604 69.6471 42.8634C69.6312 42.8645 69.6238 42.8631 69.6241 42.8621ZM60.0335 24.5539C60.0336 24.5536 60.0347 24.5583 60.0366 24.5685C60.0344 24.5593 60.0334 24.5541 60.0335 24.5539ZM52.8788 26.7714C52.5909 27.9371 52.1618 29.0756 51.5995 30.1057C52.0437 28.744 52.5099 27.5695 52.8788 26.7714ZM53.3252 22.361L53.3238 22.3538C53.3226 22.3477 53.3218 22.3452 53.3219 22.346C53.3219 22.347 53.3229 22.3521 53.3252 22.361Z" fill="white"/>
</svg>
